<svg width="10" height="16" viewBox="0 0 10 16" fill="none" xmlns="http://www.w3.org/2000/svg">
<path d="M9.6031 8C9.59408 7.68433 9.47683 7.41375 9.23331 7.17024L2.2164 0.306652C2.00896 0.10823 1.76544 0 1.46781 0C0.863528 0 0.394531 0.468997 0.394531 1.07328C0.394531 1.36189 0.51178 1.63247 0.719221 1.83991L7.03264 8L0.719221 14.1601C0.51178 14.3675 0.394531 14.6291 0.394531 14.9267C0.394531 15.531 0.863528 16 1.46781 16C1.75643 16 2.00896 15.8918 2.2164 15.6933L9.23331 8.82074C9.48585 8.58625 9.6031 8.31567 9.6031 8Z" fill="#853CF7"/>
</svg>
