<svg width="121" height="36" viewBox="0 0 121 36" fill="none" xmlns="http://www.w3.org/2000/svg">
<path d="M41.2852 12.4973H36.7687V35.3243H41.2852V12.4973Z" fill="#4D4D4D"/>
<path d="M64.932 29.9896V34.4563C62.6654 35.2994 60.4487 35.7217 58.2819 35.7217C54.7083 35.7217 51.858 34.6625 49.7328 32.5456C47.6059 30.4286 46.5433 27.5917 46.5433 24.0347C46.5433 20.4444 47.5793 17.5509 49.6464 15.3509C51.715 13.1508 54.4339 12.0516 57.808 12.0516C58.982 12.0516 60.038 12.1647 60.9709 12.3859C61.9071 12.6104 63.0612 13.0278 64.4347 13.6397V18.4539C62.1515 16.9972 60.0346 16.2705 58.0824 16.2705C56.0469 16.2705 54.3774 16.9872 53.0703 18.419C51.7633 19.8491 51.1081 21.6717 51.1081 23.8884C51.1081 26.2214 51.8165 28.0723 53.23 29.4459C54.6451 30.8178 56.5508 31.5046 58.9488 31.5046C60.6865 31.5046 62.682 30.999 64.932 29.9896Z" fill="#4D4D4D"/>
<path d="M76.2764 0.662262H71.76V35.3243H76.2764V0.662262Z" fill="#4D4D4D"/>
<path d="M100.718 12.4973H96.2017V35.3243H100.718V12.4973Z" fill="#4D4D4D"/>
<path d="M104.042 16.1208L112.528 7.78458V12.499H119.747V16.5682H112.528V27.7397C112.528 30.3472 113.611 31.6526 115.778 31.6526C117.399 31.6526 119.112 31.1154 120.914 30.0395V34.2584C119.178 35.2345 117.281 35.7217 115.23 35.7217C113.163 35.7217 111.442 35.1181 110.07 33.9091C109.64 33.545 109.287 33.1375 109.004 32.6802C108.723 32.2263 108.486 31.6309 108.296 30.8943C108.103 30.1592 108.012 28.7557 108.012 26.6887V16.5648H104.042V16.1208Z" fill="#4D4D4D"/>
<path d="M87.7772 12.4258L79.0868 20.8468L82.5557 23.5574L92.4118 13.4934L93.4212 12.4258H87.7772Z" fill="#A37DE3"/>
<path d="M79.5192 26.4975L79.9249 26.9498L88.5206 35.2178H94.9361L82.5374 23.574L79.5192 26.4975Z" fill="#5900BF"/>
<path d="M82.5557 23.5557L79.3413 20.604L76.4661 23.293L79.5192 26.4975L82.5557 23.5557Z" fill="#853DF7"/>
<path d="M30.5427 0.662262H26.0262V35.3243H30.5427V0.662262Z" fill="#4D4D4D"/>
<path d="M5.13486 0.662262H0.618347V35.3243H5.13486V0.662262Z" fill="#4D4D4D"/>
<path d="M16.6356 12.4258L7.94519 20.8468L11.4141 23.5574L21.2719 13.4901L22.2796 12.4258H16.6356Z" fill="#A37DE3"/>
<path d="M8.37756 26.4975L8.78332 26.9481L17.3806 35.2178H23.7962L11.3974 23.5724L8.37756 26.4975Z" fill="#5900BF"/>
<path d="M11.4141 23.5557L8.19964 20.604L5.32611 23.293L8.37758 26.4975L11.4141 23.5557Z" fill="#853DF7"/>
</svg>
